<?xml version="1.0" encoding="UTF-8"?>
<svg width="58px" height="58px" viewBox="0 0 58 58" version="1.1" xmlns="http://www.w3.org/2000/svg" xmlns:xlink="http://www.w3.org/1999/xlink">
    <!-- Generator: Sketch 47.1 (45422) - http://www.bohemiancoding.com/sketch -->
    <title>bot-icon</title>
    <desc>Created with Sketch.</desc>
    <defs></defs>
    <g id="Symbols" stroke="none" stroke-width="1" fill="none" fill-rule="evenodd">
        <g id="bot-icon" fill-rule="nonzero" fill="#272727">
            <g transform="translate(19.000000, 19.000000)" id="Shape">
                <path d="M18.4454005,5.06342917 C18.4999079,5.06342917 18.5511041,5.08477636 18.589565,5.12386999 C18.6690337,5.20411481 18.6690337,5.33476985 18.589565,5.41527187 C18.5513589,5.45385111 18.5004174,5.47519829 18.4461647,5.47519829 C18.4234957,5.47519829 18.4013361,5.47159756 18.3799407,5.4643961 L18.2846801,5.43198954 L18.252587,5.33579863 C18.2276256,5.2606977 18.2462193,5.1794241 18.3009814,5.12412718 C18.3396969,5.08477636 18.3908931,5.06342917 18.4454005,5.06342917 L18.4454005,5.06342917 Z M7.29685333,20.2428181 L7.38701979,20.2878272 C7.45731906,20.3230629 7.50087404,20.3937915 7.50087404,20.472236 C7.50087404,20.5859161 7.40943405,20.6782491 7.29685333,20.6782491 C7.18427262,20.6782491 7.09283263,20.5859161 7.09283263,20.472236 C7.09283263,20.3937915 7.13638761,20.3230629 7.20668688,20.2878272 L7.29685333,20.2428181 L7.29685333,20.2428181 Z M18.4454005,4.74193548 C18.3116791,4.74193548 18.1779577,4.79337447 18.07582,4.89650965 C17.9306367,5.04311077 17.8893741,5.25426783 17.9507586,5.43816222 L14.1591828,9.26702347 L9.2081784,9.26702347 L7.06506951,11.4310618 L7.06506951,20.000026 C6.89288724,20.0864435 6.77419355,20.265194 6.77419355,20.4724932 C6.77419355,20.763895 7.00826974,21 7.29659863,21 C7.58518222,21 7.81900371,20.7636378 7.81900371,20.4724932 C7.81900371,20.265194 7.70031001,20.0864435 7.52812774,20.000026 L7.52812774,11.6247296 L9.39971844,9.73486109 L14.3504681,9.73486109 L18.2780577,5.76891493 C18.3323104,5.78743296 18.3891102,5.79669198 18.4459099,5.79669198 C18.5793767,5.79669198 18.7128434,5.74551019 18.8147264,5.64263221 C19.0187471,5.43661905 19.0187471,5.10252281 18.8147264,4.89650965 C18.7130981,4.79337447 18.579122,4.74193548 18.4454005,4.74193548 L18.4454005,4.74193548 Z"></path>
                <path d="M13.0425259,1.66416262 C13.1514882,1.66416262 13.2399892,1.75300044 13.2399892,1.86237738 C13.2399892,1.93785241 13.1978341,2.00590367 13.1297943,2.03980557 L13.0425259,2.08311091 L12.9552574,2.03980557 C12.8872176,2.00590367 12.8450625,1.93785241 12.8450625,1.86237738 C12.8450625,1.7532479 12.9338101,1.66416262 13.0425259,1.66416262 L13.0425259,1.66416262 Z M5.92496955,16.884631 L6.01223801,16.9279364 C6.08027783,16.9618383 6.12243293,17.0298895 6.12243293,17.1053646 C6.12243293,17.2147415 6.03393186,17.3035793 5.92496955,17.3035793 C5.81600724,17.3035793 5.72750618,17.2147415 5.72750618,17.1053646 C5.72750618,17.0298895 5.76966128,16.9618383 5.83770109,16.9279364 L5.92496955,16.884631 L5.92496955,16.884631 Z M13.0425259,1.35483871 C12.7632175,1.35483871 12.5369111,1.58225365 12.5369111,1.86237738 C12.5369111,2.06182943 12.65179,2.23381352 12.8184382,2.31695979 L12.8184382,6.32233319 L11.382946,7.71181617 L8.41014845,7.71181617 L5.7008819,10.431392 L5.7008819,16.6507821 C5.53423366,16.733681 5.41935484,16.9059125 5.41935484,17.1053646 C5.41935484,17.3857357 5.6459077,17.6129032 5.92496955,17.6129032 C6.2040314,17.6129032 6.43058426,17.3854883 6.43058426,17.1053646 C6.43058426,16.9059125 6.31570545,16.7339284 6.1490572,16.6507821 L6.1490572,10.6177287 L8.59577882,8.16169686 L11.5638925,8.16169686 L13.26686,6.51337163 L13.26686,2.31695979 C13.4335083,2.23406098 13.5483871,2.06182943 13.5483871,1.86237738 C13.5483871,1.58200619 13.3218342,1.35483871 13.0425259,1.35483871 L13.0425259,1.35483871 Z"></path>
                <path d="M0.502499316,6.39843891 C0.554910601,6.39843891 0.604138022,6.41845344 0.641119817,6.45486541 C0.694020927,6.5069514 0.711899543,6.58291014 0.687653201,6.65332269 L0.65679422,6.74350863 L0.565196928,6.77389212 C0.544624274,6.78064401 0.523316882,6.78401996 0.501519666,6.78401996 C0.449353293,6.78401996 0.400370784,6.76400543 0.363633902,6.7278346 C0.326652108,6.69142263 0.306079454,6.64295372 0.306079454,6.59135 C0.306079454,6.53974629 0.326407195,6.49127738 0.363633902,6.45486541 C0.400860609,6.41845344 0.450088031,6.39843891 0.502499316,6.39843891 L0.502499316,6.39843891 Z M4.23937494,18.9354896 L4.32607398,18.9776889 C4.39366984,19.0107249 4.43554989,19.0770381 4.43554989,19.1505855 C4.43554989,19.2571689 4.34762629,19.3437377 4.23937494,19.3437377 C4.13112359,19.3437377 4.04319999,19.2571689 4.04319999,19.1505855 C4.04319999,19.0770381 4.08508004,19.0107249 4.1526759,18.9776889 L4.23937494,18.9354896 L4.23937494,18.9354896 Z M0.502499316,6.09677419 C0.373920229,6.09677419 0.245341143,6.14500197 0.147131212,6.24169865 C-0.0490437373,6.43485088 -0.0490437373,6.74809027 0.147131212,6.9412425 C0.24509623,7.03769804 0.373430404,7.08568468 0.501764578,7.08568468 C0.556380076,7.08568468 0.610750661,7.07700368 0.663161946,7.05964168 L2.40228593,8.77196876 L2.40228593,11.7321895 L4.01699435,13.322018 L4.01699435,18.7076134 C3.85143347,18.7883949 3.73730422,18.9562276 3.73730422,19.1505855 C3.73730422,19.4237958 3.96237885,19.6451613 4.23961985,19.6451613 C4.51710577,19.6451613 4.74193548,19.4235547 4.74193548,19.1505855 C4.74193548,18.9562276 4.62780624,18.788636 4.46224536,18.7076134 L4.46224536,13.1404404 L2.84753694,11.5506119 L2.84753694,8.59039119 L0.977874567,6.7495371 C1.03689849,6.57712281 0.997222658,6.3791478 0.857622507,6.24169865 C0.759657489,6.14524311 0.631078402,6.09677419 0.502499316,6.09677419 L0.502499316,6.09677419 Z"></path>
                <path d="M16.398309,3.03139946 C16.454337,3.03139946 16.5069614,3.05274473 16.5464952,3.09183486 C16.6281808,3.17207249 16.6281808,3.30297299 16.5464952,3.38321062 C16.5072232,3.42178641 16.4548606,3.44313167 16.3990945,3.44313167 C16.3757931,3.44313167 16.3530154,3.43953127 16.3310231,3.43233045 L16.233105,3.39992679 L16.2001166,3.3037445 C16.1744589,3.22865031 16.1935712,3.14738399 16.249861,3.09209203 C16.2893948,3.05274473 16.342281,3.03139946 16.398309,3.03139946 L16.398309,3.03139946 Z M13.4070953,8.07376887 C13.4303967,8.07376887 13.4531744,8.07736928 13.4751667,8.08457009 L13.5730848,8.11697375 L13.6060732,8.21315604 C13.6317309,8.28825024 13.6126186,8.36925939 13.5563288,8.42480852 C13.516795,8.46364147 13.4641706,8.48524391 13.4081426,8.48524391 C13.3521146,8.48524391 13.2994902,8.46389864 13.2599564,8.42480852 C13.2204227,8.38597556 13.1984304,8.33428401 13.1984304,8.27924922 C13.1984304,8.22421444 13.2201608,8.17252288 13.2599564,8.13368993 C13.2989666,8.09485697 13.3513292,8.07376887 13.4070953,8.07376887 L13.4070953,8.07376887 Z M16.398309,2.70967742 C16.2608572,2.70967742 16.1234054,2.7611118 16.0184183,2.86423773 C15.8691849,3.01082571 15.8267712,3.22196384 15.8898681,3.40584175 L14.9329416,4.34580504 L14.9329416,6.45049985 L13.5796301,7.77956422 C13.5238639,7.76104785 13.4654796,7.75178966 13.4070953,7.75178966 C13.2699053,7.75178966 13.1327153,7.80296687 13.0282519,7.90583562 C12.8185397,8.11183032 12.8185397,8.44589661 13.0282519,8.6518913 C13.1332389,8.75501723 13.2706908,8.80645161 13.4081426,8.80645161 C13.5455944,8.80645161 13.6830463,8.75501723 13.7880333,8.6518913 C13.9372667,8.50530332 13.9796804,8.29416519 13.9165835,8.11028728 L15.4091795,6.64415029 L15.4091795,4.53945548 L16.2268215,3.73656481 C16.2825877,3.75508119 16.340972,3.76433937 16.3993563,3.76433937 C16.5365463,3.76433937 16.6737363,3.71316217 16.7781997,3.61029341 C16.9879119,3.40429872 16.9879119,3.07023242 16.7781997,2.86423773 C16.6732127,2.7611118 16.5357609,2.70967742 16.398309,2.70967742 L16.398309,2.70967742 Z"></path>
                <path d="M19.1320685,7.08616627 C19.2425885,7.08616627 19.3323547,7.17569321 19.3323547,7.28591859 C19.3323547,7.36197908 19.289597,7.43055822 19.2205845,7.4647231 L19.1320685,7.50836436 L19.0435525,7.4647231 C18.97454,7.43055822 18.9317823,7.36197908 18.9317823,7.28591859 C18.9317823,7.17569321 19.0217986,7.08616627 19.1320685,7.08616627 L19.1320685,7.08616627 Z M17.447764,10.8053998 C17.470018,10.8053998 17.4917719,10.8088911 17.5127757,10.8158737 L17.6062927,10.8472954 L17.6377984,10.9405631 C17.6623028,11.0133816 17.6440495,11.0919359 17.5902898,11.1458017 C17.5525329,11.1834579 17.5022738,11.2044057 17.4487642,11.2044057 C17.3952545,11.2044057 17.3449954,11.1837073 17.3072386,11.1458017 C17.2292245,11.0679956 17.2292245,10.9413112 17.3072386,10.8632557 C17.3442453,10.8258489 17.3942543,10.8053998 17.447764,10.8053998 L17.447764,10.8053998 Z M19.1320685,6.77419355 C18.8487673,6.77419355 18.6192258,7.00337255 18.6192258,7.28566921 C18.6192258,7.48666842 18.7357469,7.6599866 18.9047774,7.74377783 L18.9047774,9.231571 L17.6122937,10.52036 C17.5590341,10.5024047 17.503274,10.4934271 17.4475139,10.4934271 C17.3164903,10.4934271 17.1854666,10.5430534 17.0856985,10.6428049 C16.8854123,10.8425572 16.8854123,11.1665001 17.0856985,11.3662524 C17.1857166,11.4662533 17.3172404,11.516129 17.4485141,11.516129 C17.5797879,11.516129 17.7110616,11.4662533 17.8113297,11.3662524 C17.9538555,11.2241066 17.9943628,11.0193667 17.9341019,10.841061 L19.3596097,9.41935314 L19.3596097,7.74377783 C19.5286402,7.66023598 19.6451613,7.48666842 19.6451613,7.28566921 C19.6451613,7.00337255 19.4153697,6.77419355 19.1320685,6.77419355 L19.1320685,6.77419355 Z"></path>
                <path d="M3.21836198,2.33721353 C3.32798586,2.33721353 3.41702426,2.42479674 3.41702426,2.53262899 C3.41702426,2.60703812 3.37461321,2.67412833 3.30616029,2.70755144 L3.21836198,2.75024521 L3.13056367,2.70755144 C3.06211075,2.67412833 3.0196997,2.60703812 3.0196997,2.53262899 C3.0196997,2.4250407 3.10898612,2.33721353 3.21836198,2.33721353 L3.21836198,2.33721353 Z M4.23325092,10.7981419 L4.32104923,10.8408357 C4.38950215,10.8742588 4.4319132,10.941349 4.4319132,11.0157581 C4.4319132,11.1235904 4.3428748,11.2111736 4.23325092,11.2111736 C4.12362704,11.2111736 4.03458864,11.1235904 4.03458864,11.0157581 C4.03458864,10.941349 4.07699969,10.8742588 4.14545261,10.8408357 L4.23325092,10.7981419 L4.23325092,10.7981419 Z M3.21836198,2.03225806 C2.93735778,2.03225806 2.70967742,2.25646132 2.70967742,2.53262899 C2.70967742,2.72926427 2.82525373,2.89881951 2.99291378,2.98079154 L2.99291378,5.11913925 L4.00780272,6.11744146 L4.00780272,10.5675956 C3.84014267,10.6493236 3.72456636,10.8191228 3.72456636,11.0157581 C3.72456636,11.2921697 3.95249474,11.516129 4.23325092,11.516129 C4.51425512,11.516129 4.74193548,11.2919258 4.74193548,11.0157581 C4.74193548,10.8191228 4.62635918,10.6495676 4.45869913,10.5675956 L4.45869913,5.93373629 L3.44381018,4.93543408 L3.44381018,2.98079154 C3.61147023,2.89906348 3.72704654,2.72926427 3.72704654,2.53262899 C3.72729456,2.25646132 3.49936618,2.03225806 3.21836198,2.03225806 L3.21836198,2.03225806 Z"></path>
                <path d="M1.15157245,4.3933094 C1.25375463,4.3933094 1.33674876,4.48773883 1.33674876,4.60400013 C1.33674876,4.68422569 1.29721674,4.75656021 1.23341067,4.79259595 L1.15157245,4.83862701 L1.06973422,4.79259595 C1.00592815,4.75656021 0.966396129,4.68422569 0.966396129,4.60400013 C0.966396129,4.48800186 1.04962144,4.3933094 1.15157245,4.3933094 L1.15157245,4.3933094 Z M2.23604449,6.70196424 C2.28528613,6.70196424 2.33152241,6.72379612 2.36619963,6.76325131 C2.43832823,6.84531811 2.43832823,6.97893969 2.36619963,7.06126953 C2.33129123,7.10098776 2.28482377,7.12308267 2.23535094,7.12308267 C2.18587812,7.12308267 2.13941065,7.10125079 2.10450226,7.06126953 C2.05456707,7.00445405 2.03769083,6.92159815 2.06057779,6.84479204 L2.08970665,6.74641709 L2.1761685,6.71327473 C2.19535656,6.70564673 2.21546934,6.70196424 2.23604449,6.70196424 L2.23604449,6.70196424 Z M1.15157245,4.06451613 C0.889643898,4.06451613 0.677419355,4.30624494 0.677419355,4.60400013 C0.677419355,4.81600603 0.785149896,4.99881509 0.941428536,5.08719472 L0.941428536,5.77818666 L1.78639662,6.73957819 C1.7306819,6.92764794 1.76813329,7.14359937 1.8999067,7.2935291 C1.99261045,7.39900598 2.1139807,7.4516129 2.23535094,7.4516129 C2.35672119,7.4516129 2.47809143,7.39900598 2.57079518,7.2935291 C2.7559715,7.08283837 2.7559715,6.7411564 2.57079518,6.53046567 C2.47832261,6.42525182 2.35718355,6.37290794 2.23627567,6.37290794 C2.18472221,6.37290794 2.13339994,6.38237718 2.08392711,6.40131567 L1.36217872,5.5801216 L1.36217872,5.08719472 C1.51845736,4.99907813 1.6261879,4.81600603 1.6261879,4.60400013 C1.62595672,4.30624494 1.41350099,4.06451613 1.15157245,4.06451613 L1.15157245,4.06451613 Z"></path>
                <path d="M5.25111717,1.64446147 C5.36084818,1.64446147 5.4499736,1.72764112 5.4499736,1.83005173 C5.4499736,1.90071968 5.4075211,1.96443669 5.33900128,1.99617934 L5.25111717,2.03672653 L5.16323306,1.99617934 C5.09471324,1.96443669 5.05226074,1.90071968 5.05226074,1.83005173 C5.05226074,1.72787282 5.14163442,1.64446147 5.25111717,1.64446147 L5.25111717,1.64446147 Z M10.3292797,5.43573921 C10.4390107,5.43573921 10.5281362,5.51891887 10.5281362,5.62132947 C10.5281362,5.72374008 10.4390107,5.80691974 10.3292797,5.80691974 C10.2535604,5.80691974 10.1852888,5.76729934 10.1512772,5.70335064 L10.1078316,5.62156117 L10.1512772,5.53954001 C10.1855371,5.4755913 10.2535604,5.43573921 10.3292797,5.43573921 L10.3292797,5.43573921 Z M5.25111717,1.35483871 C4.96983836,1.35483871 4.74193548,1.56776936 4.74193548,1.83005173 C4.74193548,2.01680048 4.85762474,2.17783074 5.02544864,2.25568133 L5.02544864,3.33840705 L7.69747326,5.83217484 L9.87347399,5.83217484 C9.95688942,5.98880283 10.1294303,6.09677419 10.329528,6.09677419 C10.6108068,6.09677419 10.8387097,5.88384354 10.8387097,5.62156117 C10.8387097,5.35904711 10.6105585,5.14634815 10.329528,5.14634815 C10.1294303,5.14634815 9.95688942,5.25431952 9.87347399,5.4109475 L7.8844132,5.4109475 L5.47703396,3.16417 L5.47703396,2.25568133 C5.64485786,2.17806244 5.76054712,2.01680048 5.76054712,1.83005173 C5.76054712,1.56753766 5.53239599,1.35483871 5.25111717,1.35483871 L5.25111717,1.35483871 Z"></path>
                <path d="M8.62065437,0.349205806 C8.66992402,0.349205806 8.71620066,0.372393072 8.7509657,0.414856498 C8.78573073,0.457040559 8.80507022,0.513192853 8.80507022,0.572976887 C8.80507022,0.632760921 8.78596096,0.688913215 8.75119593,0.731097276 C8.71666112,0.773001973 8.67061472,0.796189238 8.6215753,0.796189238 C8.60108465,0.796189238 8.58105446,0.792278133 8.56171497,0.784455923 L8.4756082,0.749255978 L8.44659896,0.644773601 C8.42403622,0.563199124 8.44084316,0.474919896 8.49034305,0.414856498 C8.52510808,0.372672436 8.57138472,0.349205806 8.62065437,0.349205806 L8.62065437,0.349205806 Z M10.3665038,3.94518752 C10.4682664,3.94518752 10.5509196,4.04547942 10.5509196,4.1689586 C10.5509196,4.29243777 10.4682664,4.39272968 10.3665038,4.39272968 C10.296283,4.39272968 10.2329692,4.34495832 10.2014274,4.26785368 L10.1611368,4.16923796 L10.2014274,4.07034288 C10.2331995,3.99295887 10.296283,3.94518752 10.3665038,3.94518752 L10.3665038,3.94518752 Z M8.62065437,0 C8.49978256,0 8.37891075,0.055872929 8.28658771,0.167898152 C8.15535545,0.327135999 8.11805786,0.556494373 8.17354378,0.756240094 L6.77419355,2.45421841 L8.39663861,4.42290106 L9.94356757,4.42290106 C10.0209255,4.61175156 10.1809368,4.74193548 10.3665038,4.74193548 C10.6273567,4.74193548 10.8387097,4.48519938 10.8387097,4.1689586 C10.8387097,3.85243845 10.6271264,3.59598171 10.3665038,3.59598171 C10.1809368,3.59598171 10.0209255,3.72616563 9.94356757,3.91501613 L8.57023356,3.91501613 L7.36635031,2.45421841 L8.46962216,1.11550303 C8.51866158,1.13561728 8.57000333,1.14567441 8.62134507,1.14567441 C8.74198665,1.14567441 8.86262823,1.09008084 8.95472104,0.978334987 C9.13913689,0.754563906 9.13913689,0.391669232 8.95472104,0.167898152 C8.86239799,0.055872929 8.74152618,0 8.62065437,0 L8.62065437,0 Z"></path>
                <path d="M11.7493268,0.360866905 C11.7956597,0.360866905 11.8391779,0.384828468 11.8718707,0.428709884 C11.9394214,0.518782263 11.9394214,0.665727267 11.8718707,0.755799647 C11.8393944,0.799103675 11.7960927,0.823065238 11.7499764,0.823065238 C11.7307071,0.823065238 11.7118709,0.819023529 11.6936841,0.81094011 L11.6127099,0.774564726 L11.5854298,0.666593348 C11.564212,0.582294839 11.5800171,0.491356378 11.6265665,0.428998577 C11.6594758,0.385117161 11.702994,0.360866905 11.7493268,0.360866905 L11.7493268,0.360866905 Z M10.6048623,1.88661218 C10.6241316,1.88661218 10.6429679,1.89065389 10.6611546,1.89873731 L10.7421288,1.93511269 L10.7694089,2.04308407 C10.7906267,2.12738258 10.7748216,2.21832104 10.7282722,2.28067884 C10.6955794,2.32427156 10.6520612,2.34852182 10.6057284,2.34852182 C10.5593955,2.34852182 10.5158773,2.32456026 10.4831845,2.28067884 C10.4504917,2.23708612 10.432305,2.17905872 10.432305,2.11727831 C10.432305,2.05549789 10.4502752,1.99747049 10.4831845,1.95387777 C10.5154443,1.91057374 10.558746,1.88661218 10.6048623,1.88661218 L10.6048623,1.88661218 Z M11.7493268,0 C11.6356598,0 11.5219928,0.0577387049 11.4351729,0.173504808 C11.3117629,0.338060117 11.2766886,0.5750775 11.3288671,0.78149337 L10.747325,1.55692418 C10.7012087,1.53613824 10.6529272,1.52574528 10.6046458,1.52574528 C10.4911953,1.52574528 10.3777448,1.58319529 10.2913579,1.6986727 C10.1179345,1.92991621 10.1179345,2.3049291 10.2913579,2.53617261 C10.3781778,2.65193871 10.4918448,2.70967742 10.6055119,2.70967742 C10.7191789,2.70967742 10.8328459,2.65193871 10.9196659,2.53617261 C11.0430758,2.3716173 11.0781502,2.13459992 11.0259716,1.92818405 L11.6075137,1.15275324 C11.65363,1.17353918 11.7019115,1.18393214 11.7501929,1.18393214 C11.8636434,1.18393214 11.9770939,1.12648213 12.0634808,1.01100472 C12.2369042,0.779761209 12.2369042,0.404748321 12.0634808,0.173504808 C11.9766609,0.0577387049 11.8629939,0 11.7493268,0 L11.7493268,0 Z"></path>
                <path d="M5.91541379,5.05634211 C5.96715333,5.05634211 6.01574982,5.07720202 6.05225763,5.11515198 C6.10448073,5.16943802 6.1221302,5.24860515 6.09819461,5.32199183 L6.06773114,5.41598709 L5.97730782,5.44765395 C5.95699884,5.45469103 5.93596454,5.45820957 5.91444669,5.45820957 C5.86294892,5.45820957 5.8145942,5.43734965 5.77832816,5.39965102 C5.70289481,5.32123786 5.70289481,5.19331382 5.77832816,5.11490066 C5.81507775,5.07720202 5.86367424,5.05634211 5.91541379,5.05634211 L5.91541379,5.05634211 Z M5.91468846,7.4130095 C5.93620631,7.4130095 5.95724062,7.41652804 5.9775496,7.42356512 L6.06797292,7.45523197 L6.09843639,7.54922724 C6.1221302,7.62261392 6.10448073,7.70203238 6.05249941,7.75606709 C6.0159916,7.79401705 5.96739511,7.81512828 5.91565556,7.81512828 C5.86391601,7.81512828 5.81531952,7.79426837 5.77881171,7.75606709 C5.70337835,7.67765392 5.70337835,7.54998121 5.77881171,7.47131672 C5.81483598,7.43361809 5.86319069,7.4130095 5.91468846,7.4130095 L5.91468846,7.4130095 Z M5.91541379,4.74193548 C5.78848265,4.74193548 5.66155152,4.79220033 5.56460032,4.89298135 C5.37093968,5.09429207 5.37093968,5.42076225 5.56460032,5.62207297 C5.66130975,5.72260267 5.78799911,5.77261619 5.91444669,5.77261619 C5.9683622,5.77261619 6.02203594,5.76356852 6.07377548,5.74547317 L6.33416563,6.01589805 L6.33416563,6.85506969 L6.07401726,7.12549457 C6.02251948,7.10739922 5.96860397,7.09835155 5.91468846,7.09835155 C5.78799911,7.09835155 5.66130975,7.14836508 5.56484209,7.24889477 C5.37118145,7.45020549 5.37118145,7.77667567 5.56484209,7.97798639 C5.6617933,8.07876741 5.78848265,8.12903226 5.91565556,8.12903226 C6.04258669,8.12903226 6.16951782,8.07876741 6.26646903,7.97798639 C6.40427997,7.83473157 6.44344729,7.62839437 6.38517986,7.44869754 L6.77419355,7.04431684 L6.77419355,5.8266509 L6.38517986,5.4222702 C6.44344729,5.24257337 6.40427997,5.03623617 6.26646903,4.89298135 C6.16927605,4.79245166 6.04234492,4.74193548 5.91541379,4.74193548 L5.91541379,4.74193548 Z"></path>
                <path d="M17.7900266,8.46937558 C17.8422081,8.46937558 17.8912197,8.49197438 17.9280393,8.53336013 C18.004117,8.61830982 18.004117,8.75689762 17.9280393,8.84184732 C17.8914635,8.88268852 17.8426958,8.90528731 17.7907581,8.90528731 C17.7690565,8.90528731 17.7478425,8.90147547 17.7273601,8.89385178 L17.6361644,8.85954517 L17.6054407,8.75771445 C17.5815446,8.67821025 17.5993448,8.59217146 17.6517701,8.5336324 C17.6885897,8.49197438 17.7378451,8.46937558 17.7900266,8.46937558 L17.7900266,8.46937558 Z M10.6614034,11.4167488 C10.7357742,11.4167488 10.8028298,11.4633077 10.8362357,11.5384556 L10.8789075,11.6348408 L10.8362357,11.7309537 C10.8028298,11.8061015 10.7357742,11.8526605 10.6614034,11.8526605 C10.5536267,11.8526605 10.4660886,11.7549139 10.4660886,11.6345685 C10.4660886,11.5142231 10.5536267,11.4167488 10.6614034,11.4167488 L10.6614034,11.4167488 Z M17.7900266,8.12903226 C17.6620113,8.12903226 17.533996,8.18348719 17.4362167,8.29266933 C17.2972287,8.44786589 17.2577268,8.67140338 17.3164919,8.86607976 L15.0583021,11.3876154 L11.109335,11.3876154 C11.0276491,11.2035577 10.8579374,11.0766777 10.6614034,11.0766777 C10.3851342,11.0766777 10.1612903,11.3268981 10.1612903,11.6351131 C10.1612903,11.9436002 10.3853781,12.1935484 10.6614034,12.1935484 C10.8579374,12.1935484 11.0274052,12.0666684 11.109335,11.8826107 L15.2421565,11.8826107 L17.6300685,9.21622498 C17.6820061,9.23582875 17.7363821,9.24563064 17.7907581,9.24563064 C17.9185296,9.24563064 18.046301,9.19144798 18.1438365,9.08253812 C18.3391513,8.86444612 18.3391513,8.51076133 18.1438365,8.29266933 C18.0460572,8.18348719 17.9180419,8.12903226 17.7900266,8.12903226 L17.7900266,8.12903226 Z"></path>
                <path d="M0.412202457,9.13527042 C0.455195671,9.13527042 0.495577147,9.15710399 0.52591348,9.1968253 C0.5693085,9.25364519 0.583974409,9.33650753 0.564085025,9.4133196 L0.538771264,9.51170219 L0.463633591,9.54484713 C0.446757751,9.55221267 0.429279201,9.55589544 0.411398846,9.55589544 C0.368606535,9.55589544 0.328425962,9.53406187 0.298290532,9.49460361 C0.235608837,9.41253044 0.235608837,9.27863542 0.298290532,9.19656225 C0.328827768,9.15710399 0.369209244,9.13527042 0.412202457,9.13527042 L0.412202457,9.13527042 Z M0.942786929,11.4193774 L1.01390654,11.465412 C1.06935574,11.5014506 1.10371013,11.5737907 1.10371013,11.6540225 C1.10371013,11.7702928 1.031586,11.8647296 0.942786929,11.8647296 C0.853987862,11.8647296 0.781863733,11.7702928 0.781863733,11.6540225 C0.781863733,11.5737907 0.816218123,11.5014506 0.871667314,11.465412 L0.942786929,11.4193774 L0.942786929,11.4193774 Z M0.412202457,8.80645161 C0.306728452,8.80645161 0.201254447,8.85906262 0.120692397,8.9645477 C-0.0402307991,9.17525479 -0.0402307991,9.51696329 0.120692397,9.72767038 C0.201053544,9.8328924 0.306326647,9.88524036 0.411398846,9.88524036 C0.456200185,9.88524036 0.500800622,9.87577038 0.543793835,9.85683041 L0.760166223,10.1398776 L0.760166223,11.1707904 C0.624355885,11.2589138 0.530735149,11.4420001 0.530735149,11.6540225 C0.530735149,11.9520639 0.715364884,12.1935484 0.942786929,12.1935484 C1.17020897,12.1935484 1.35483871,11.9518008 1.35483871,11.6540225 C1.35483871,11.4420001 1.26121797,11.2591769 1.12540764,11.1707904 L1.12540764,9.94153414 L0.802154922,9.51827857 C0.850572513,9.33019421 0.818026249,9.11422602 0.703511615,8.96428464 C0.623150468,8.85906262 0.517676463,8.80645161 0.412202457,8.80645161 L0.412202457,8.80645161 Z"></path>
            </g>
        </g>
    </g>
</svg>