<?xml version="1.0" encoding="UTF-8"?>
<svg width="58px" height="58px" viewBox="0 0 58 58" version="1.1" xmlns="http://www.w3.org/2000/svg" xmlns:xlink="http://www.w3.org/1999/xlink">
    <!-- Generator: Sketch 47.1 (45422) - http://www.bohemiancoding.com/sketch -->
    <title>calendar-icon</title>
    <desc>Created with Sketch.</desc>
    <defs></defs>
    <g id="Symbols" stroke="none" stroke-width="1" fill="none" fill-rule="evenodd">
        <g id="calendar-icon" fill-rule="nonzero" fill="#272727">
            <g transform="translate(20.000000, 18.000000)" id="Shape">
                <path d="M19,6.74193548 C19,4.18709677 16.9592593,2.12903226 14.4259259,2.12903226 L14.0740741,2.12903226 L14.0740741,0.35483871 C14.0740741,0.141935484 13.9333333,0 13.7222222,0 C13.5111111,0 13.3703704,0.141935484 13.3703704,0.35483871 L13.3703704,2.12903226 L5.62962963,2.12903226 L5.62962963,0.35483871 C5.62962963,0.141935484 5.48888889,0 5.27777778,0 C5.06666667,0 4.92592593,0.141935484 4.92592593,0.35483871 L4.92592593,2.12903226 L4.57407407,2.12903226 C2.04074074,2.12903226 0,4.18709677 0,6.74193548 L0,17.3870968 C0,19.9419355 2.04074074,22 4.57407407,22 L14.4259259,22 C16.9592593,22 19,19.9419355 19,17.3870968 L19,6.74193548 Z M0.703703704,6.74193548 C0.703703704,4.57741935 2.42777778,2.83870968 4.57407407,2.83870968 L4.92592593,2.83870968 L4.92592593,4.61290323 C4.92592593,4.82580645 5.06666667,4.96774194 5.27777778,4.96774194 C5.48888889,4.96774194 5.62962963,4.82580645 5.62962963,4.61290323 L5.62962963,2.83870968 L13.3703704,2.83870968 L13.3703704,4.61290323 C13.3703704,4.82580645 13.5111111,4.96774194 13.7222222,4.96774194 C13.9333333,4.96774194 14.0740741,4.82580645 14.0740741,4.61290323 L14.0740741,2.83870968 L14.4259259,2.83870968 C16.5722222,2.83870968 18.2962963,4.57741935 18.2962963,6.74193548 L18.2962963,8.51612903 L0.703703704,8.51612903 L0.703703704,6.74193548 Z M18.2962963,17.3870968 C18.2962963,19.5516129 16.5722222,21.2903226 14.4259259,21.2903226 L4.57407407,21.2903226 C2.42777778,21.2903226 0.703703704,19.5516129 0.703703704,17.3870968 L0.703703704,9.22580645 L18.2962963,9.22580645 L18.2962963,17.3870968 Z"></path>
                <path d="M7.38888889,18 L13.6111111,18 C13.8444444,18 14,17.8 14,17.5 C14,17.2 13.8444444,17 13.6111111,17 L7.38888889,17 C7.15555556,17 7,17.2 7,17.5 C7,17.8 7.15555556,18 7.38888889,18 Z"></path>
                <path d="M7.38888889,14 L13.6111111,14 C13.8444444,14 14,13.8 14,13.5 C14,13.2 13.8444444,13 13.6111111,13 L7.38888889,13 C7.15555556,13 7,13.2 7,13.5 C7,13.8 7.15555556,14 7.38888889,14 Z"></path>
            </g>
        </g>
    </g>
</svg>