<?xml version="1.0" encoding="UTF-8"?>
<svg width="58px" height="58px" viewBox="0 0 58 58" version="1.1" xmlns="http://www.w3.org/2000/svg" xmlns:xlink="http://www.w3.org/1999/xlink">
    <!-- Generator: Sketch 47.1 (45422) - http://www.bohemiancoding.com/sketch -->
    <title>home-icon</title>
    <desc>Created with Sketch.</desc>
    <defs></defs>
    <g id="Symbols" stroke="none" stroke-width="1" fill="none" fill-rule="evenodd">
        <g id="home-icon" fill-rule="nonzero" fill="#272727">
            <g transform="translate(20.000000, 17.000000)" id="Shape">
                <path d="M0.801765676,8.54088755 C0.684520067,8.65690283 0.589473684,8.88196381 0.589473684,9.03932057 L0.589473684,20.1283433 C0.589473684,20.2876049 0.722331857,20.416712 0.890043015,20.416712 L16.7941675,20.416712 C16.9601674,20.416712 17.0947368,20.2857 17.0947368,20.1283433 L17.0947368,9.03932057 C17.0947368,8.88005891 17.0020559,8.65924345 16.8824449,8.54088755 L9.05439725,0.794984027 C8.93715165,0.678968742 8.74942432,0.676628124 8.62981327,0.794984027 L0.801765676,8.54088755 Z M0,9.09504294 C0,8.77157148 0.184679924,8.32660404 0.414613507,8.09908334 L8.42749176,0.170288637 C8.65647646,-0.0562932061 9.02678519,-0.0572320665 9.25671877,0.170288637 L17.269597,8.09908334 C17.4985817,8.32566518 17.6842105,8.77023108 17.6842105,9.09504294 L17.6842105,20.4143031 C17.6842105,20.7377746 17.4205005,21 17.0958252,21 L0.588385339,21 C0.263429069,21 0,20.7391149 0,20.4143031 L0,9.09504294 Z"></path>
            </g>
        </g>
    </g>
</svg>