<?xml version="1.0" encoding="UTF-8"?>
<svg width="58px" height="58px" viewBox="0 0 58 58" version="1.1" xmlns="http://www.w3.org/2000/svg" xmlns:xlink="http://www.w3.org/1999/xlink">
    <!-- Generator: Sketch 47.1 (45422) - http://www.bohemiancoding.com/sketch -->
    <title>invite-icon</title>
    <desc>Created with Sketch.</desc>
    <defs></defs>
    <g id="Symbols" stroke="none" stroke-width="1" fill="none" fill-rule="evenodd">
        <g id="invite-icon" fill-rule="nonzero" fill="#272727">
            <g transform="translate(19.000000, 19.000000)" id="Shape">
                <path d="M20.9999747,20.4897708 L20.9999747,8.77217929 C21.0000834,8.70173233 20.9854554,8.63204138 20.95703,8.56758242 L20.941873,8.53979765 C20.9309053,8.51698846 20.9182388,8.49503563 20.9039806,8.47412458 L20.878719,8.44381393 L20.8307219,8.39582207 L20.815565,8.38066675 L18.1226776,6.1528341 L18.1226776,2.92222417 C18.1226776,2.64322235 17.8964775,2.41704669 17.6174455,2.41704669 L13.6084284,2.41704669 L10.8296516,0.115963309 C10.6427682,-0.0386544364 10.3723641,-0.0386544364 10.1854806,0.115963309 L7.39407304,2.41704669 L3.38505597,2.41704669 C3.10602396,2.41704669 2.87982383,2.64322235 2.87982383,2.92222417 L2.87982383,6.1528341 L0.184410335,8.38319264 L0.16925337,8.39834796 L0.121256317,8.44633982 L0.0959947094,8.47665047 C0.0817365019,8.49756152 0.0690700342,8.51951435 0.0581022985,8.54232354 L0.0429453342,8.5701083 C0.0145199377,8.63456726 -0.000108142084,8.70425822 6.01868559e-07,8.77470518 L6.01868559e-07,20.4948225 C6.01868559e-07,20.7738243 0.226200738,21 0.505232747,21 L20.4947426,21 C20.6296184,21.0000067 20.7588978,20.9460899 20.8537938,20.8502554 C20.9486898,20.7544208 21.0013235,20.6246253 20.9999747,20.4897708 Z M19.6787926,8.75197219 L18.1226776,9.91135449 L18.1226776,7.46882141 L19.6787926,8.75197219 Z M10.5012507,1.15410301 L12.0169472,2.41704669 L8.9855543,2.41704669 L10.5012507,1.15410301 Z M17.1122133,3.42740164 L17.1122133,10.6640689 L10.5012507,15.5920752 L3.89028812,10.6640689 L3.89028812,3.42740164 L17.1122133,3.42740164 Z M2.87982383,7.46882141 L2.87982383,9.91640627 L1.32370882,8.75702397 L2.87982383,7.46882141 Z M1.01046489,19.9896451 L1.01046489,9.77748246 L2.98844874,11.2576525 C3.04516061,11.3316008 3.12122366,11.3884233 3.20822472,11.4218351 L10.1981114,16.627689 C10.377233,16.7611441 10.6227423,16.7611441 10.8018639,16.627689 L17.7942767,11.4142575 C17.8812778,11.3808457 17.9573409,11.3240231 18.0140527,11.2500748 L19.9895104,9.77748246 L19.9895104,19.9845933 L1.01046489,19.9896451 Z"></path>
                <polygon points="10.3751351 11.76 11.4648649 11.76 11.4648649 9.78486486 13.44 9.78486486 13.44 8.69513514 11.4648649 8.69513514 11.4648649 6.72 10.3751351 6.72 10.3751351 8.69513514 8.4 8.69513514 8.4 9.78486486 10.3751351 9.78486486"></polygon>
            </g>
        </g>
    </g>
</svg>