<?xml version="1.0" encoding="UTF-8"?>
<svg width="58px" height="58px" viewBox="0 0 58 58" version="1.1" xmlns="http://www.w3.org/2000/svg" xmlns:xlink="http://www.w3.org/1999/xlink">
    <!-- Generator: Sketch 47.1 (45422) - http://www.bohemiancoding.com/sketch -->
    <title>notification-icon</title>
    <desc>Created with Sketch.</desc>
    <defs></defs>
    <g id="Symbols" stroke="none" stroke-width="1" fill="none" fill-rule="evenodd">
        <g id="notification-icon" fill-rule="nonzero" fill="#272727">
            <g transform="translate(20.000000, 18.000000)" id="Shape">
                <path d="M7.56122449,1.93910654 C7.56122449,0.868818933 8.43055293,0 9.5,0 C10.5715098,0 11.4387755,0.866651071 11.4387755,1.93910654 L11.4387755,2.5915385 C14.506048,3.44975854 16.6734694,6.25837088 16.6734694,9.49970895 L16.6734694,14.1523853 C16.6734694,14.4757283 16.9325608,14.7346939 17.2542928,14.7346939 C18.216202,14.7346939 19,15.5169487 19,16.4795918 C19,17.4422049 18.2163886,18.2244898 17.2512659,18.2244898 L1.7487341,18.2244898 C0.782718533,18.2244898 0,17.4435359 0,16.4795918 C0,15.5170634 0.782170518,14.7346939 1.74570717,14.7346939 C2.06550485,14.7346939 2.32653061,14.4735077 2.32653061,14.1523853 L2.32653061,9.49970895 C2.32653061,6.25765841 4.49385561,3.44961786 7.56122449,2.5915036 L7.56122449,1.93910654 Z M7.80340632,2.92794847 C4.82961562,3.6929889 2.71428571,6.38460691 2.71428571,9.49970895 L2.71428571,14.1523853 C2.71428571,14.6876056 2.27970946,15.122449 1.74570717,15.122449 C0.996343831,15.122449 0.387755102,15.7311925 0.387755102,16.4795918 C0.387755102,17.2291885 0.996674082,17.8367347 1.7487341,17.8367347 L17.2512659,17.8367347 C18.0023843,17.8367347 18.6122449,17.2279065 18.6122449,16.4795918 C18.6122449,15.7312712 18.0022216,15.122449 17.2542928,15.122449 C16.7184517,15.122449 16.2857143,14.6899217 16.2857143,14.1523853 L16.2857143,9.49970895 C16.2857143,6.38531589 14.1702694,3.69310173 11.196587,2.92797581 L11.0510204,2.89052165 L11.0510204,1.93910654 C11.0510204,1.08086386 10.3574201,0.387755102 9.5,0.387755102 C8.64465331,0.387755102 7.94897959,1.08302109 7.94897959,1.93910654 L7.94897959,2.89049815 L7.80340632,2.92794847 Z M6.59183673,18.2244898 L6.97959184,18.2244898 C6.97959184,19.6164728 8.108017,20.744898 9.5,20.744898 C10.891983,20.744898 12.0204082,19.6164728 12.0204082,18.2244898 L12.4081633,18.2244898 C12.4081633,19.830624 11.1061342,21.1326531 9.5,21.1326531 C7.89386579,21.1326531 6.59183673,19.830624 6.59183673,18.2244898 Z"></path>
            </g>
        </g>
    </g>
</svg>